<?xml version="1.0" encoding="UTF-8"?>
<svg width="298px" height="92px" viewBox="0 0 298 92" version="1.1" xmlns="http://www.w3.org/2000/svg" xmlns:xlink="http://www.w3.org/1999/xlink">
    <!-- Generator: Sketch 41.2 (35397) - http://www.bohemiancoding.com/sketch -->
    <title>Group</title>
    <desc>Created with Sketch.</desc>
    <defs></defs>
    <g id="Page-1" stroke="none" stroke-width="1" fill="none" fill-rule="evenodd">
        <g id="Artboard-Copy-2" transform="translate(-251.000000, -309.000000)">
            <g id="Group" transform="translate(251.000000, 309.000000)">
                <g id="mark-copy-4">
                    <g id="s" transform="translate(276.601086, 3.257356)">
                        <polyline id="Path-2" stroke="#FFFFFF" stroke-width="0.593901748" points="19.2701721 1.48061645 1.48232093 19.2480139 19.2701721 30.7968223 1.48232093 54.7828088"></polyline>
                        <g id="star" transform="translate(17.787851, 0.000000)" fill="#FFFFFF">
                            <ellipse id="Oval-Copy" cx="1.48232093" cy="1.48061645" rx="1.48232093" ry="1.48061645"></ellipse>
                        </g>
                        <g id="star-copy" transform="translate(0.000000, 17.767397)" fill="#FFFFFF">
                            <ellipse id="Oval-Copy" cx="1.48232093" cy="1.48061645" rx="1.48232093" ry="1.48061645"></ellipse>
                        </g>
                        <g id="star-copy-2" transform="translate(17.787851, 29.316206)" fill="#FFFFFF">
                            <ellipse id="Oval-Copy" cx="1.48232093" cy="1.48061645" rx="1.48232093" ry="1.48061645"></ellipse>
                        </g>
                        <g id="star-copy-3" transform="translate(0.000000, 53.302192)" fill="#FFFFFF">
                            <ellipse id="Oval-Copy" cx="1.48232093" cy="1.48061645" rx="1.48232093" ry="1.48061645"></ellipse>
                        </g>
                    </g>
                    <g id="s" transform="translate(249.919309, 3.257356)">
                        <polyline id="Path-2" stroke="#FFFFFF" stroke-width="0.593901748" points="19.2701721 1.48061645 1.48232093 19.2480139 19.2701721 30.7968223 1.48232093 54.7828088"></polyline>
                        <g id="star" transform="translate(17.787851, 0.000000)" fill="#FFFFFF">
                            <ellipse id="Oval-Copy" cx="1.48232093" cy="1.48061645" rx="1.48232093" ry="1.48061645"></ellipse>
                        </g>
                        <g id="star-copy" transform="translate(0.000000, 17.767397)" fill="#FFFFFF">
                            <ellipse id="Oval-Copy" cx="1.48232093" cy="1.48061645" rx="1.48232093" ry="1.48061645"></ellipse>
                        </g>
                        <g id="star-copy-2" transform="translate(17.787851, 29.316206)" fill="#FFFFFF">
                            <ellipse id="Oval-Copy" cx="1.48232093" cy="1.48061645" rx="1.48232093" ry="1.48061645"></ellipse>
                        </g>
                        <g id="star-copy-3" transform="translate(0.000000, 53.302192)" fill="#FFFFFF">
                            <ellipse id="Oval-Copy" cx="1.48232093" cy="1.48061645" rx="1.48232093" ry="1.48061645"></ellipse>
                        </g>
                    </g>
                    <g id="l" transform="translate(142.302810, 3.257356)">
                        <g id="star-copy" transform="translate(0.000000, 8.883699)" fill="#FFFFFF">
                            <ellipse id="Oval-Copy" cx="1.48232093" cy="1.48061645" rx="1.48232093" ry="1.48061645"></ellipse>
                        </g>
                        <g id="star-copy-7" transform="translate(0.000000, 41.457261)" fill="#FFFFFF">
                            <ellipse id="Oval-Copy" cx="1.48232093" cy="1.48061645" rx="1.48232093" ry="1.48061645"></ellipse>
                        </g>
                        <g id="star-copy-11" transform="translate(17.787851, 53.302192)" fill="#FFFFFF">
                            <ellipse id="Oval-Copy" cx="1.48232093" cy="1.48061645" rx="1.48232093" ry="1.48061645"></ellipse>
                        </g>
                        <g id="star-copy-2" transform="translate(17.787851, 23.689863)" fill="#FFFFFF">
                            <ellipse id="Oval-Copy" cx="1.48232093" cy="1.48061645" rx="1.48232093" ry="1.48061645"></ellipse>
                        </g>
                        <g id="star-copy-9" transform="translate(35.575702, 26.651096)" fill="#FFFFFF">
                            <ellipse id="Oval-Copy" cx="1.48232093" cy="1.48061645" rx="1.48232093" ry="1.48061645"></ellipse>
                        </g>
                        <polyline id="Path-5" stroke="#FFFFFF" stroke-width="0.593901748" points="19.2701721 25.1704797 37.0580233 28.1317126 19.2701721 54.7828088 1.48232093 42.9378772 1.48232093 10.3643152 19.2701721 1.48061645 28.1640977 10.3643152"></polyline>
                        <g id="star" transform="translate(26.681777, 8.883699)" fill="#FFFFFF">
                            <ellipse id="Oval-Copy" cx="1.48232093" cy="1.48061645" rx="1.48232093" ry="1.48061645"></ellipse>
                        </g>
                        <g id="star-copy-12" transform="translate(17.787851, 0.000000)" fill="#FFFFFF">
                            <ellipse id="Oval-Copy" cx="1.48232093" cy="1.48061645" rx="1.48232093" ry="1.48061645"></ellipse>
                        </g>
                    </g>
                    <g id="g" transform="translate(189.737079, 3.257356)">
                        <g id="star-copy" fill="#FFFFFF">
                            <ellipse id="Oval-Copy" cx="1.48232093" cy="1.48061645" rx="1.48232093" ry="1.48061645"></ellipse>
                        </g>
                        <g id="star-copy-7" transform="translate(0.000000, 41.457261)" fill="#FFFFFF">
                            <ellipse id="Oval-Copy" cx="1.48232093" cy="1.48061645" rx="1.48232093" ry="1.48061645"></ellipse>
                        </g>
                        <g id="star-copy-11" transform="translate(11.858567, 53.302192)" fill="#FFFFFF">
                            <ellipse id="Oval-Copy" cx="1.48232093" cy="1.48061645" rx="1.48232093" ry="1.48061645"></ellipse>
                        </g>
                        <polyline id="Path-5" stroke="#FFFFFF" stroke-width="0.593901748" points="13.3408884 54.7828088 1.48232093 42.9378772 1.48232093 1.48061645"></polyline>
                    </g>
                    <g id="r" transform="translate(109.691749, 6.218589)">
                        <g id="star" transform="translate(17.787851, 9.179822)" fill="#FFFFFF">
                            <ellipse id="Oval-Copy" cx="1.48232093" cy="1.48061645" rx="1.48232093" ry="1.48061645"></ellipse>
                        </g>
                        <g id="star-copy" transform="translate(0.000000, 20.728630)" fill="#FFFFFF">
                            <ellipse id="Oval-Copy" cx="1.48232093" cy="1.48061645" rx="1.48232093" ry="1.48061645"></ellipse>
                        </g>
                        <g id="star-copy-6" transform="translate(17.787851, 29.612329)" fill="#FFFFFF">
                            <ellipse id="Oval-Copy" cx="1.48232093" cy="1.48061645" rx="1.48232093" ry="1.48061645"></ellipse>
                        </g>
                        <g id="star-copy-8" transform="translate(0.000000, 53.302192)" fill="#FFFFFF">
                            <ellipse id="Oval-Copy" cx="1.48232093" cy="1.48061645" rx="1.48232093" ry="1.48061645"></ellipse>
                        </g>
                        <g id="star-copy-10" fill="#FFFFFF">
                            <ellipse id="Oval-Copy" cx="1.48232093" cy="1.48061645" rx="1.48232093" ry="1.48061645"></ellipse>
                        </g>
                        <g id="star-copy-9" transform="translate(21.048957, 53.302192)" fill="#FFFFFF">
                            <ellipse id="Oval-Copy" cx="1.48232093" cy="1.48061645" rx="1.48232093" ry="1.48061645"></ellipse>
                        </g>
                        <polyline id="Path-5" stroke="#FFFFFF" stroke-width="0.593901748" points="1.48232093 54.7828088 1.48232093 1.48061645 19.2701721 10.6604385 1.77878512 22.2092468 19.2701721 31.0929455 22.5312782 54.8487425"></polyline>
                    </g>
                    <g id="a" transform="translate(60.775158, 0.296123)">
                        <g id="star" transform="translate(32.611061, 0.000000)" fill="#FFFFFF">
                            <ellipse id="Oval-Copy" cx="1.48232093" cy="1.48061645" rx="1.48232093" ry="1.48061645"></ellipse>
                        </g>
                        <g id="star-copy" transform="translate(8.893926, 11.844932)" fill="#FFFFFF">
                            <ellipse id="Oval-Copy" cx="1.48232093" cy="1.48061645" rx="1.48232093" ry="1.48061645"></ellipse>
                        </g>
                        <g id="star-copy-6" transform="translate(8.893926, 22.209247)" fill="#FFFFFF">
                            <ellipse id="Oval-Copy" cx="1.48232093" cy="1.48061645" rx="1.48232093" ry="1.48061645"></ellipse>
                        </g>
                        <g id="star-copy-7" transform="translate(8.893926, 44.418494)" fill="#FFFFFF">
                            <ellipse id="Oval-Copy" cx="1.48232093" cy="1.48061645" rx="1.48232093" ry="1.48061645"></ellipse>
                        </g>
                        <g id="star-copy-8" transform="translate(0.000000, 53.302192)" fill="#FFFFFF">
                            <ellipse id="Oval-Copy" cx="1.48232093" cy="1.48061645" rx="1.48232093" ry="1.48061645"></ellipse>
                        </g>
                        <g id="star-copy-2" transform="translate(32.611061, 28.131713)" fill="#FFFFFF">
                            <ellipse id="Oval-Copy" cx="1.48232093" cy="1.48061645" rx="1.48232093" ry="1.48061645"></ellipse>
                        </g>
                        <g id="star-copy-9" transform="translate(32.611061, 53.302192)" fill="#FFFFFF">
                            <ellipse id="Oval-Copy" cx="1.48232093" cy="1.48061645" rx="1.48232093" ry="1.48061645"></ellipse>
                        </g>
                        <polyline id="Path-5" stroke="#FFFFFF" stroke-width="0.593901748" points="1.48232093 54.7828088 10.3762465 45.8991101 10.3762465 23.6898633 10.3762465 13.3255481 34.0933815 1.48061645 34.0933815 29.6123291 34.0933815 54.7828088"></polyline>
                        <path d="M10.3762465,23.6898633 L34.0933815,29.6123291" id="Path-6" stroke="#FFFFFF" stroke-width="0.593901748" fill="#FFFFFF"></path>
                    </g>
                    <g id="a-copy" transform="translate(210.489572, 0.000000)">
                        <g id="star" transform="translate(23.717135, 0.000000)" fill="#FFFFFF">
                            <ellipse id="Oval-Copy" cx="1.48232093" cy="1.48061645" rx="1.48232093" ry="1.48061645"></ellipse>
                        </g>
                        <g id="star-copy" transform="translate(0.000000, 11.844932)" fill="#FFFFFF">
                            <ellipse id="Oval-Copy" cx="1.48232093" cy="1.48061645" rx="1.48232093" ry="1.48061645"></ellipse>
                        </g>
                        <g id="star-copy-6" transform="translate(0.000000, 22.209247)" fill="#FFFFFF">
                            <ellipse id="Oval-Copy" cx="1.48232093" cy="1.48061645" rx="1.48232093" ry="1.48061645"></ellipse>
                        </g>
                        <g id="star-copy-7" transform="translate(0.000000, 44.418494)" fill="#FFFFFF">
                            <ellipse id="Oval-Copy" cx="1.48232093" cy="1.48061645" rx="1.48232093" ry="1.48061645"></ellipse>
                        </g>
                        <g id="star-copy-2" transform="translate(23.717135, 28.131713)" fill="#FFFFFF">
                            <ellipse id="Oval-Copy" cx="1.48232093" cy="1.48061645" rx="1.48232093" ry="1.48061645"></ellipse>
                        </g>
                        <g id="star-copy-9" transform="translate(23.717135, 53.302192)" fill="#FFFFFF">
                            <ellipse id="Oval-Copy" cx="1.48232093" cy="1.48061645" rx="1.48232093" ry="1.48061645"></ellipse>
                        </g>
                        <polyline id="Path-5" stroke="#FFFFFF" stroke-width="0.593901748" points="1.48232093 45.8991101 1.48232093 23.6898633 1.48232093 13.3255481 25.1994559 1.48061645 25.1994559 29.6123291 25.1994559 54.7828088"></polyline>
                        <path d="M1.48232093,23.6898633 L25.1994559,29.6123291" id="Path-6" stroke="#FFFFFF" stroke-width="0.593901748" fill="#FFFFFF"></path>
                    </g>
                    <g id="t" transform="translate(37.058023, 3.257356)" fill="#FFFFFF">
                        <path d="M10.3762465,3.40541785 L10.3762465,54.7828088" id="Path-4" stroke="#FFFFFF" stroke-width="0.593901748"></path>
                        <path d="M1.48232093,4.44184936 L28.1640977,1.48061645" id="Path-3" stroke="#FFFFFF" stroke-width="0.593901748"></path>
                        <g id="star" transform="translate(26.681777, 0.000000)">
                            <ellipse id="Oval-Copy" cx="1.48232093" cy="1.48061645" rx="1.48232093" ry="1.48061645"></ellipse>
                        </g>
                        <g id="star-copy" transform="translate(0.000000, 2.961233)">
                            <ellipse id="Oval-Copy" cx="1.48232093" cy="1.48061645" rx="1.48232093" ry="1.48061645"></ellipse>
                        </g>
                        <g id="star-copy-5" transform="translate(8.893926, 1.924801)">
                            <ellipse id="Oval-Copy" cx="1.48232093" cy="1.48061645" rx="1.48232093" ry="1.48061645"></ellipse>
                        </g>
                        <g id="star-copy-3" transform="translate(8.893926, 53.302192)">
                            <ellipse id="Oval-Copy" cx="1.48232093" cy="1.48061645" rx="1.48232093" ry="1.48061645"></ellipse>
                        </g>
                    </g>
                    <g id="s" transform="translate(0.000000, 0.296123)">
                        <polyline id="Path-2" stroke="#FFFFFF" stroke-width="0.593901748" points="28.1640977 1.48061645 10.3762465 19.2480139 28.1640977 30.7968223 10.3762465 54.7828088 1.48232093 54.7828088"></polyline>
                        <g id="star" transform="translate(26.681777, 0.000000)" fill="#FFFFFF">
                            <ellipse id="Oval-Copy" cx="1.48232093" cy="1.48061645" rx="1.48232093" ry="1.48061645"></ellipse>
                        </g>
                        <g id="star-copy" transform="translate(8.893926, 17.767397)" fill="#FFFFFF">
                            <ellipse id="Oval-Copy" cx="1.48232093" cy="1.48061645" rx="1.48232093" ry="1.48061645"></ellipse>
                        </g>
                        <g id="star-copy-2" transform="translate(26.681777, 29.316206)" fill="#FFFFFF">
                            <ellipse id="Oval-Copy" cx="1.48232093" cy="1.48061645" rx="1.48232093" ry="1.48061645"></ellipse>
                        </g>
                        <g id="star-copy-3" transform="translate(8.893926, 53.302192)" fill="#FFFFFF">
                            <ellipse id="Oval-Copy" cx="1.48232093" cy="1.48061645" rx="1.48232093" ry="1.48061645"></ellipse>
                        </g>
                        <g id="star-copy-4" transform="translate(0.000000, 53.302192)" fill="#FFFFFF">
                            <ellipse id="Oval-Copy" cx="1.48232093" cy="1.48061645" rx="1.48232093" ry="1.48061645"></ellipse>
                        </g>
                    </g>
                </g>
                <g id="Group-2" transform="translate(8.000000, 75.000000)" fill="#FFFFFF">
                    <path d="M4.63046717,1.55221972 C4.93033533,1.85208788 5.15523308,2.24565894 5.30516716,2.73294471 C5.45510124,3.22023047 5.53006716,3.8237061 5.53006716,4.54338969 C5.53006716,5.95277006 5.23020349,6.95731333 4.63046717,7.55704966 C4.28561878,7.90189805 3.86580965,8.1192992 3.37102718,8.20925965 C2.87624471,8.2992201 2.34398671,8.34419965 1.7742372,8.34419965 L1.4706222,8.34419965 C1.37316505,8.34419965 1.26446447,8.33670306 1.1445172,8.32170965 L0.852147207,8.32170965 L0.852147207,15.9458196 C0.852147207,16.0657668 0.814664249,16.1632225 0.739697208,16.2381896 C0.664730168,16.3131566 0.567274476,16.3506396 0.447327211,16.3506396 C0.327379946,16.3506396 0.229924255,16.3131566 0.154957214,16.2381896 C0.0799901735,16.1632225 0.0425072154,16.0657668 0.0425072154,15.9458196 L0.0425072154,7.91688966 L0.0425072154,1.16988973 C0.0425072154,1.04994246 0.0799901735,0.952486769 0.154957214,0.877519728 C0.229924255,0.802552687 0.327379946,0.765069729 0.447327211,0.765069729 C0.492307436,0.765069729 0.522293802,0.772566321 0.53728721,0.787559729 L0.840902207,0.787559729 C0.93835936,0.787559729 1.03956335,0.780063137 1.1445172,0.765069729 C1.83421398,0.750076321 2.48266915,0.776314392 3.08990218,0.843784728 C3.69713521,0.911255065 4.21065174,1.1473977 4.63046717,1.55221972 L4.63046717,1.55221972 Z M4.06821717,6.97230967 C4.50302601,6.55249424 4.72042717,5.74286234 4.72042717,4.54338969 C4.72042717,3.35891045 4.50302601,2.55677514 4.06821717,2.13695972 C3.76834901,1.85208496 3.36353306,1.68715994 2.85375719,1.64217972 C2.34398131,1.5971995 1.78173694,1.57470972 1.1670072,1.57470972 C1.10703357,1.57470972 1.05080913,1.57845802 0.998332206,1.58595472 C0.945855277,1.59345142 0.897127432,1.59719972 0.852147207,1.59719972 L0.852147207,7.51206966 L1.1670072,7.51206966 C1.78173694,7.52706307 2.34398131,7.51581818 2.85375719,7.47833466 C3.36353306,7.44085114 3.76834901,7.27217783 4.06821717,6.97230967 L4.06821717,6.97230967 Z M31.4010658,1.03494973 C31.5210131,1.03494973 31.6184687,1.07243268 31.6934358,1.14739973 C31.7684028,1.22236677 31.8058858,1.31982246 31.8058858,1.43976972 L31.8058858,15.9683096 C31.8058858,16.0882568 31.7684028,16.1857125 31.6934358,16.2606796 C31.6184687,16.3356466 31.5210131,16.3731296 31.4010658,16.3731296 C31.2811185,16.3731296 31.1836628,16.3356466 31.1086958,16.2606796 C31.0337288,16.1857125 30.9962458,16.0882568 30.9962458,15.9683096 L30.9962458,9.10885964 L26.1833858,9.10885964 L26.1833858,15.9683096 C26.1833858,16.0882568 26.1459029,16.1857125 26.0709358,16.2606796 C25.9959688,16.3356466 25.8985131,16.3731296 25.7785658,16.3731296 C25.6586186,16.3731296 25.5611629,16.3356466 25.4861958,16.2606796 C25.4112288,16.1857125 25.3737458,16.0882568 25.3737458,15.9683096 L25.3737458,1.43976972 C25.3737458,1.31982246 25.4112288,1.22236677 25.4861958,1.14739973 C25.5611629,1.07243268 25.6586186,1.03494973 25.7785658,1.03494973 C25.8985131,1.03494973 25.9959688,1.07243268 26.0709358,1.14739973 C26.1459029,1.22236677 26.1833858,1.31982246 26.1833858,1.43976972 L26.1833858,8.29921965 L30.9962458,8.29921965 L30.9962458,1.43976972 C30.9962458,1.31982246 31.0337288,1.22236677 31.1086958,1.14739973 C31.1836628,1.07243268 31.2811185,1.03494973 31.4010658,1.03494973 L31.4010658,1.03494973 Z M56.1025844,16.4405996 C55.8327031,16.4405996 55.5740707,16.4293547 55.3266794,16.4068646 C55.0792882,16.3843745 54.835649,16.3318983 54.5957544,16.2494346 C54.3558599,16.1669708 54.1347105,16.0470254 53.9322995,15.8895946 C53.7298884,15.7321638 53.5387254,15.5110143 53.3588045,15.2261396 C52.9989627,14.6713835 52.7403303,13.8729965 52.5828995,12.8309546 C52.4254687,11.7889127 52.3467545,10.4057916 52.3467545,8.68154965 C52.3467545,7.79693857 52.3654959,7.00979645 52.4029795,6.32009967 C52.440463,5.6304029 52.504184,5.01568238 52.5941445,4.47591969 C52.6691115,3.95115041 52.7740638,3.49760661 52.9090045,3.11527471 C53.0439451,2.7329428 53.193877,2.39934447 53.3588045,2.11446972 C53.5387254,1.84458837 53.7336367,1.62718721 53.9435445,1.46225972 C54.1534522,1.29733223 54.3746016,1.17738677 54.6069994,1.10241973 C54.8393973,1.02745269 55.0830365,0.97872484 55.3379244,0.956234727 C55.5928124,0.933744615 55.8476965,0.922499728 56.1025844,0.922499728 L56.2150344,0.922499728 L56.3274844,0.922499728 C56.5823724,0.922499728 56.8372565,0.933744615 57.0921444,0.956234727 C57.3470324,0.97872484 57.5906716,1.02745269 57.8230694,1.10241973 C58.0554672,1.17738677 58.2766167,1.29733223 58.4865244,1.46225972 C58.6964321,1.62718721 58.8913435,1.84458837 59.0712644,2.11446972 C59.2361919,2.39934447 59.3861237,2.7329428 59.5210644,3.11527471 C59.6560051,3.49760661 59.7609573,3.95115041 59.8359244,4.47591969 C60.0158453,5.55544508 60.1058044,6.95730771 60.1058044,8.68154965 C60.1058044,10.4057916 60.0158453,11.8076542 59.8359244,12.8871796 C59.6859903,13.9217248 59.4311062,14.7013703 59.0712644,15.2261396 C58.8913435,15.5110143 58.7001804,15.7321638 58.4977694,15.8895946 C58.2953584,16.0470254 58.0742089,16.1669708 57.8343144,16.2494346 C57.5944199,16.3318983 57.3507807,16.3843745 57.1033894,16.4068646 C56.8559982,16.4293547 56.5973658,16.4405996 56.3274844,16.4405996 L56.2150344,16.4405996 L56.1025844,16.4405996 Z M56.1025844,1.73213972 C55.6377888,1.73213972 55.2404694,1.76962268 54.9106144,1.84458972 C54.5807595,1.91955676 54.2883924,2.1519511 54.0335044,2.54177971 C53.7336363,3.02156877 53.5124868,3.76747964 53.3700495,4.77953469 C53.2276121,5.79158974 53.1563945,7.09224839 53.1563945,8.68154965 C53.1563945,11.8451588 53.4487615,13.8842317 54.0335044,14.7988296 C54.2883924,15.1886582 54.5807595,15.4248008 54.9106144,15.5072646 C55.2404694,15.5897283 55.6377888,15.6309596 56.1025844,15.6309596 L56.2150344,15.6309596 L56.3274844,15.6309596 C56.7922801,15.6309596 57.1895994,15.5897283 57.5194544,15.5072646 C57.8493094,15.4248008 58.1416765,15.1886582 58.3965644,14.7988296 C58.9963007,13.8392515 59.2961644,11.8001785 59.2961644,8.68154965 C59.2961644,5.54792735 58.9963007,3.50135783 58.3965644,2.54177971 C58.1416765,2.1519511 57.8493094,1.91955676 57.5194544,1.84458972 C57.1895994,1.76962268 56.7922801,1.73213972 56.3274844,1.73213972 L56.2150344,1.73213972 L56.1025844,1.73213972 Z M87.776003,0.989969727 C87.8959503,0.989969727 87.993406,1.02745269 88.068373,1.10241973 C88.14334,1.17738677 88.180823,1.27484246 88.180823,1.39478972 C88.180823,1.51473699 88.14334,1.61219268 88.068373,1.68715972 C87.993406,1.76212676 87.8959503,1.79960972 87.776003,1.79960972 L84.380013,1.79960972 L84.380013,15.9683096 C84.380013,16.0882568 84.3425301,16.1857125 84.267563,16.2606796 C84.192596,16.3356466 84.0951403,16.3731296 83.975193,16.3731296 C83.8552458,16.3731296 83.7577901,16.3356466 83.682823,16.2606796 C83.607856,16.1857125 83.570373,16.0882568 83.570373,15.9683096 L83.570373,1.79960972 L80.1743831,1.79960972 C80.0544358,1.79960972 79.9569801,1.76212676 79.8820131,1.68715972 C79.807046,1.61219268 79.7695631,1.51473699 79.7695631,1.39478972 C79.7695631,1.27484246 79.807046,1.17738677 79.8820131,1.10241973 C79.9569801,1.02745269 80.0544358,0.989969727 80.1743831,0.989969727 L83.975193,0.989969727 L87.776003,0.989969727 Z M111.847802,16.4405996 C111.57792,16.4405996 111.319288,16.4293547 111.071897,16.4068646 C110.824505,16.3843745 110.580866,16.3318983 110.340972,16.2494346 C110.101077,16.1669708 109.879928,16.0470254 109.677517,15.8895946 C109.475106,15.7321638 109.283943,15.5110143 109.104022,15.2261396 C108.74418,14.6713835 108.485547,13.8729965 108.328117,12.8309546 C108.170686,11.7889127 108.091972,10.4057916 108.091972,8.68154965 C108.091972,7.79693857 108.110713,7.00979645 108.148197,6.32009967 C108.18568,5.6304029 108.249401,5.01568238 108.339362,4.47591969 C108.414329,3.95115041 108.519281,3.49760661 108.654222,3.11527471 C108.789162,2.7329428 108.939094,2.39934447 109.104022,2.11446972 C109.283943,1.84458837 109.478854,1.62718721 109.688762,1.46225972 C109.898669,1.29733223 110.119819,1.17738677 110.352217,1.10241973 C110.584614,1.02745269 110.828254,0.97872484 111.083142,0.956234727 C111.33803,0.933744615 111.592914,0.922499728 111.847802,0.922499728 L111.960252,0.922499728 L112.072702,0.922499728 C112.32759,0.922499728 112.582474,0.933744615 112.837362,0.956234727 C113.09225,0.97872484 113.335889,1.02745269 113.568287,1.10241973 C113.800684,1.17738677 114.021834,1.29733223 114.231742,1.46225972 C114.441649,1.62718721 114.636561,1.84458837 114.816482,2.11446972 C114.981409,2.39934447 115.131341,2.7329428 115.266282,3.11527471 C115.401222,3.49760661 115.506175,3.95115041 115.581142,4.47591969 C115.761063,5.55544508 115.851022,6.95730771 115.851022,8.68154965 C115.851022,10.4057916 115.761063,11.8076542 115.581142,12.8871796 C115.431208,13.9217248 115.176323,14.7013703 114.816482,15.2261396 C114.636561,15.5110143 114.445398,15.7321638 114.242987,15.8895946 C114.040576,16.0470254 113.819426,16.1669708 113.579532,16.2494346 C113.339637,16.3318983 113.095998,16.3843745 112.848607,16.4068646 C112.601215,16.4293547 112.342583,16.4405996 112.072702,16.4405996 L111.960252,16.4405996 L111.847802,16.4405996 Z M111.847802,1.73213972 C111.383006,1.73213972 110.985687,1.76962268 110.655832,1.84458972 C110.325977,1.91955676 110.03361,2.1519511 109.778722,2.54177971 C109.478854,3.02156877 109.257704,3.76747964 109.115267,4.77953469 C108.972829,5.79158974 108.901612,7.09224839 108.901612,8.68154965 C108.901612,11.8451588 109.193979,13.8842317 109.778722,14.7988296 C110.03361,15.1886582 110.325977,15.4248008 110.655832,15.5072646 C110.985687,15.5897283 111.383006,15.6309596 111.847802,15.6309596 L111.960252,15.6309596 L112.072702,15.6309596 C112.537497,15.6309596 112.934817,15.5897283 113.264672,15.5072646 C113.594527,15.4248008 113.886894,15.1886582 114.141782,14.7988296 C114.741518,13.8392515 115.041382,11.8001785 115.041382,8.68154965 C115.041382,5.54792735 114.741518,3.50135783 114.141782,2.54177971 C113.886894,2.1519511 113.594527,1.91955676 113.264672,1.84458972 C112.934817,1.76962268 112.537497,1.73213972 112.072702,1.73213972 L111.960252,1.73213972 L111.847802,1.73213972 Z M145.1405,8.32170965 C145.260447,8.32170965 145.357903,8.35919261 145.43287,8.43415965 C145.507837,8.50912669 145.54532,8.60658238 145.54532,8.72652965 C145.54532,8.84647691 145.507837,8.9439326 145.43287,9.01889965 C145.357903,9.09386669 145.260447,9.13134964 145.1405,9.13134964 L143.7911,9.13134964 C143.761113,10.9605454 143.641168,12.3848978 143.43126,13.4044496 C143.206359,14.4689816 142.854019,15.2411305 142.37423,15.7209196 C142.179316,15.9158339 141.97316,16.0657657 141.755755,16.1707196 C141.538351,16.2756734 141.317201,16.3506393 141.0923,16.3956196 C140.867399,16.4405998 140.642501,16.4668379 140.4176,16.4743346 C140.192699,16.4818313 139.982795,16.4855796 139.78788,16.4855796 L139.63045,16.4855796 C139.225628,16.4855796 138.809567,16.4480966 138.382255,16.3731296 C137.954943,16.2981625 137.568869,16.088258 137.22402,15.7434096 C136.744231,15.2636205 136.391891,14.483975 136.16699,13.4044496 C135.927096,12.3099308 135.80715,10.7506397 135.80715,8.72652965 C135.80715,6.71741296 135.927096,5.1581219 136.16699,4.0486097 C136.391891,2.98407772 136.744231,2.21192878 137.22402,1.73213972 C137.613849,1.35730452 138.02991,1.13990336 138.472215,1.07992973 C138.914521,1.01995609 139.353071,0.989969727 139.78788,0.989969727 C140.177709,0.989969727 140.541294,1.00871121 140.878645,1.04619473 C141.215997,1.08367825 141.534602,1.18488223 141.83447,1.34980972 C142.524167,1.70965152 143.011445,2.4443175 143.29632,3.5538297 C143.326307,3.67377697 143.315062,3.77872925 143.262585,3.8686897 C143.210108,3.95865015 143.131394,4.01862288 143.02644,4.0486097 C142.906493,4.07859651 142.801541,4.06735162 142.71158,4.0148747 C142.62162,3.96239777 142.561647,3.88368356 142.53166,3.7787297 C142.291766,2.89411862 141.931929,2.31688106 141.45214,2.04699972 C141.227239,1.92705245 140.979852,1.85583483 140.70997,1.83334472 C140.440089,1.81085461 140.132729,1.79960972 139.78788,1.79960972 C139.338078,1.79960972 138.955752,1.82209949 138.64089,1.86707972 C138.326029,1.91205994 138.041158,2.06199177 137.78627,2.31687971 C137.396442,2.70670833 137.104075,3.42263283 136.90916,4.46467469 C136.714246,5.50671656 136.61679,6.92732067 136.61679,8.72652965 C136.61679,10.540732 136.714246,11.9688327 136.90916,13.0108746 C137.104075,14.0529165 137.396442,14.768841 137.78627,15.1586696 C138.026165,15.3985641 138.307287,15.5447476 138.629645,15.5972246 C138.952004,15.6497015 139.338078,15.6759396 139.78788,15.6759396 L139.81037,15.6759396 C140.245179,15.6759396 140.623757,15.6497015 140.946115,15.5972246 C141.268474,15.5447476 141.549596,15.3985641 141.78949,15.1586696 C142.179319,14.768841 142.467938,14.0866511 142.655355,13.1120796 C142.842773,12.1375081 142.951473,10.8106114 142.98146,9.13134964 L140.57503,9.13134964 C140.455083,9.13134964 140.357627,9.09386669 140.28266,9.01889965 C140.207693,8.9439326 140.17021,8.84647691 140.17021,8.72652965 C140.17021,8.60658238 140.207693,8.50912669 140.28266,8.43415965 C140.357627,8.35919261 140.455083,8.32170965 140.57503,8.32170965 L143.36379,8.32170965 L143.38628,8.32170965 L145.1405,8.32170965 Z M171.888609,9.08636964 C172.533325,9.71609279 172.855679,10.7431258 172.855679,12.1674996 L172.855679,15.9458196 C172.855679,16.0657668 172.818196,16.1632225 172.743229,16.2381896 C172.668262,16.3131566 172.570806,16.3506396 172.450859,16.3506396 C172.330912,16.3506396 172.233456,16.3131566 172.158489,16.2381896 C172.083522,16.1632225 172.046039,16.0657668 172.046039,15.9458196 L172.046039,12.1674996 C172.046039,10.9830204 171.806148,10.1508987 171.326359,9.67110964 C170.951524,9.31126784 170.441755,9.10885987 169.797039,9.06387964 C169.152322,9.01889942 168.432649,9.01140283 167.637999,9.04138965 C167.488065,9.04138965 167.338133,9.04513794 167.188199,9.05263464 C167.038265,9.06013135 166.888333,9.06387964 166.738399,9.06387964 L166.738399,15.9458196 C166.738399,16.0657668 166.700916,16.1632225 166.625949,16.2381896 C166.550982,16.3131566 166.453526,16.3506396 166.333579,16.3506396 C166.213632,16.3506396 166.116176,16.3131566 166.041209,16.2381896 C165.966242,16.1632225 165.928759,16.0657668 165.928759,15.9458196 L165.928759,8.65905965 L165.928759,8.63656965 L165.928759,1.37229972 C165.928759,1.25235246 165.966242,1.15489677 166.041209,1.07992973 C166.116176,1.00496269 166.213632,0.967479727 166.333579,0.967479727 C167.952867,0.967479727 169.144825,1.22986043 169.909489,1.75462972 C170.74912,2.33937264 171.168929,3.23896363 171.168929,4.45342969 C171.168929,5.17311328 170.936534,5.86654801 170.471739,6.53375467 C170.006943,7.20096133 169.377229,7.75945741 168.582579,8.20925965 C169.257282,8.19426625 169.879499,8.2392458 170.449249,8.34419965 C171.018998,8.44915351 171.49878,8.69654103 171.888609,9.08636964 L171.888609,9.08636964 Z M166.738399,1.77711972 L166.738399,8.11929965 C167.218188,7.98435898 167.667983,7.80069249 168.087799,7.56829466 C168.507614,7.33589683 168.882444,7.06227124 169.212299,6.74740967 C169.976963,6.02772608 170.359289,5.26307373 170.359289,4.45342969 C170.359289,3.52383839 170.051929,2.84914514 169.437199,2.42932971 C168.867449,2.0395011 167.967858,1.82209994 166.738399,1.77711972 L166.738399,1.77711972 Z M200.998167,15.8558596 C201.028154,15.9758068 201.013161,16.0807591 200.953187,16.1707196 C200.893214,16.26068 200.810751,16.3206528 200.705797,16.3506396 C200.58585,16.3806264 200.480898,16.3693815 200.390937,16.3169046 C200.300977,16.2644276 200.241004,16.1782168 200.211017,16.0582696 L198.411817,9.08636964 L195.285707,9.08636964 L193.486507,16.0807596 C193.441527,16.2756739 193.314085,16.3731296 193.104177,16.3731296 C193.059197,16.3731296 193.021714,16.365633 192.991727,16.3506396 C192.886774,16.3206528 192.804311,16.26068 192.744337,16.1707196 C192.684364,16.0807591 192.669371,15.9833034 192.699357,15.8783496 L196.455187,1.30482972 C196.500168,1.10991542 196.62761,1.01245973 196.837517,1.01245973 C197.062419,1.01245973 197.197357,1.10991542 197.242337,1.30482972 L200.998167,15.8558596 Z M195.488117,8.27672965 L198.209407,8.27672965 L196.837517,3.03655971 L195.488117,8.27672965 Z M225.722176,1.55221972 C226.022044,1.85208788 226.246942,2.24565894 226.396876,2.73294471 C226.54681,3.22023047 226.621776,3.8237061 226.621776,4.54338969 C226.621776,5.95277006 226.321912,6.95731333 225.722176,7.55704966 C225.377328,7.90189805 224.957519,8.1192992 224.462736,8.20925965 C223.967954,8.2992201 223.435696,8.34419965 222.865946,8.34419965 L222.562331,8.34419965 C222.464874,8.34419965 222.356173,8.33670306 222.236226,8.32170965 L221.943856,8.32170965 L221.943856,15.9458196 C221.943856,16.0657668 221.906373,16.1632225 221.831406,16.2381896 C221.756439,16.3131566 221.658983,16.3506396 221.539036,16.3506396 C221.419089,16.3506396 221.321633,16.3131566 221.246666,16.2381896 C221.171699,16.1632225 221.134216,16.0657668 221.134216,15.9458196 L221.134216,7.91688966 L221.134216,1.16988973 C221.134216,1.04994246 221.171699,0.952486769 221.246666,0.877519728 C221.321633,0.802552687 221.419089,0.765069729 221.539036,0.765069729 C221.584016,0.765069729 221.614003,0.772566321 221.628996,0.787559729 L221.932611,0.787559729 C222.030068,0.787559729 222.131272,0.780063137 222.236226,0.765069729 C222.925923,0.750076321 223.574378,0.776314392 224.181611,0.843784728 C224.788844,0.911255065 225.302361,1.1473977 225.722176,1.55221972 L225.722176,1.55221972 Z M225.159926,6.97230967 C225.594735,6.55249424 225.812136,5.74286234 225.812136,4.54338969 C225.812136,3.35891045 225.594735,2.55677514 225.159926,2.13695972 C224.860058,1.85208496 224.455242,1.68715994 223.945466,1.64217972 C223.43569,1.5971995 222.873446,1.57470972 222.258716,1.57470972 C222.198742,1.57470972 222.142518,1.57845802 222.090041,1.58595472 C222.037564,1.59345142 221.988836,1.59719972 221.943856,1.59719972 L221.943856,7.51206966 L222.258716,7.51206966 C222.873446,7.52706307 223.43569,7.51581818 223.945466,7.47833466 C224.455242,7.44085114 224.860058,7.27217783 225.159926,6.97230967 L225.159926,6.97230967 Z M252.492775,1.03494973 C252.612722,1.03494973 252.710178,1.07243268 252.785145,1.14739973 C252.860112,1.22236677 252.897595,1.31982246 252.897595,1.43976972 L252.897595,15.9683096 C252.897595,16.0882568 252.860112,16.1857125 252.785145,16.2606796 C252.710178,16.3356466 252.612722,16.3731296 252.492775,16.3731296 C252.372827,16.3731296 252.275372,16.3356466 252.200405,16.2606796 C252.125438,16.1857125 252.087955,16.0882568 252.087955,15.9683096 L252.087955,9.10885964 L247.275095,9.10885964 L247.275095,15.9683096 C247.275095,16.0882568 247.237612,16.1857125 247.162645,16.2606796 C247.087678,16.3356466 246.990222,16.3731296 246.870275,16.3731296 C246.750327,16.3731296 246.652872,16.3356466 246.577905,16.2606796 C246.502938,16.1857125 246.465455,16.0882568 246.465455,15.9683096 L246.465455,1.43976972 C246.465455,1.31982246 246.502938,1.22236677 246.577905,1.14739973 C246.652872,1.07243268 246.750327,1.03494973 246.870275,1.03494973 C246.990222,1.03494973 247.087678,1.07243268 247.162645,1.14739973 C247.237612,1.22236677 247.275095,1.31982246 247.275095,1.43976972 L247.275095,8.29921965 L252.087955,8.29921965 L252.087955,1.43976972 C252.087955,1.31982246 252.125438,1.22236677 252.200405,1.14739973 C252.275372,1.07243268 252.372827,1.03494973 252.492775,1.03494973 L252.492775,1.03494973 Z M281.669803,1.05743973 C281.759764,1.11741336 281.823485,1.19987587 281.860968,1.30482972 C281.898452,1.40978358 281.894703,1.51473586 281.849723,1.61968972 L278.228833,8.77150965 L278.228833,16.0357796 C278.228833,16.1557268 278.19135,16.2531825 278.116383,16.3281496 C278.041416,16.4031166 277.943961,16.4405996 277.824013,16.4405996 C277.704066,16.4405996 277.60661,16.4031166 277.531643,16.3281496 C277.456676,16.2531825 277.419193,16.1557268 277.419193,16.0357796 L277.419193,8.77150965 L273.798303,1.61968972 C273.753323,1.51473586 273.745827,1.40978358 273.775813,1.30482972 C273.8058,1.19987587 273.873269,1.12490995 273.978223,1.07992973 C274.083177,1.01995609 274.188129,1.00871121 274.293083,1.04619473 C274.398037,1.08367825 274.473003,1.15489587 274.517983,1.25984972 L277.824013,7.78194966 L281.107553,1.23735972 C281.167527,1.14739928 281.249989,1.08367825 281.354943,1.04619473 C281.459897,1.00871121 281.564849,1.0124595 281.669803,1.05743973 L281.669803,1.05743973 Z" id="PHOTOGRAPHY"></path>
                </g>
            </g>
        </g>
    </g>
</svg>